<?xml version="1.0" encoding="UTF-8" standalone="no"?>
<!-- Created with Inkscape (http://www.inkscape.org/) -->

<svg
   xmlns:dc="http://purl.org/dc/elements/1.1/"
   xmlns:cc="http://creativecommons.org/ns#"
   xmlns:rdf="http://www.w3.org/1999/02/22-rdf-syntax-ns#"
   xmlns:svg="http://www.w3.org/2000/svg"
   xmlns="http://www.w3.org/2000/svg"
   xmlns:sodipodi="http://sodipodi.sourceforge.net/DTD/sodipodi-0.dtd"
   xmlns:inkscape="http://www.inkscape.org/namespaces/inkscape"
   width="15.53691mm"
   height="19.593201mm"
   viewBox="0 0 15.53691 19.5932"
   version="1.1"
   id="svg8"
   inkscape:version="0.92.4 (5da689c313, 2019-01-14)"
   sodipodi:docname="Katakana-YO-Small.svg">
  <defs
     id="defs2" />
  <sodipodi:namedview
     id="base"
     pagecolor="#ffffff"
     bordercolor="#666666"
     borderopacity="1.0"
     inkscape:pageopacity="0.0"
     inkscape:pageshadow="2"
     inkscape:zoom="7.9195959"
     inkscape:cx="37.262782"
     inkscape:cy="39.385794"
     inkscape:document-units="mm"
     inkscape:current-layer="layer4"
     showgrid="false"
     fit-margin-top="0"
     fit-margin-left="0"
     fit-margin-right="0"
     fit-margin-bottom="0"
     inkscape:snap-global="true"
     showguides="true"
     inkscape:guide-bbox="true"
     inkscape:snap-midpoints="false"
     inkscape:snap-intersection-paths="false"
     inkscape:object-paths="true"
     inkscape:window-width="1920"
     inkscape:window-height="1031"
     inkscape:window-x="0"
     inkscape:window-y="24"
     inkscape:window-maximized="1">
    <sodipodi:guide
       position="0.017638637,0.017639512"
       orientation="1,0"
       id="guide855"
       inkscape:locked="false" />
    <sodipodi:guide
       position="15.519271,0.017639512"
       orientation="1,0"
       id="guide857"
       inkscape:locked="false" />
    <sodipodi:guide
       position="32.824967,0.017640512"
       orientation="1,0"
       id="guide859"
       inkscape:locked="false" />
    <sodipodi:guide
       position="49.863408,0.017639512"
       orientation="1,0"
       id="guide861"
       inkscape:locked="false" />
    <sodipodi:guide
       position="70.042249,0.017640512"
       orientation="1,0"
       id="guide863"
       inkscape:locked="false" />
    <sodipodi:guide
       position="87.74885,0.017640512"
       orientation="1,0"
       id="guide865"
       inkscape:locked="false" />
    <sodipodi:guide
       position="-19.222409,0.017640512"
       orientation="1,0"
       id="guide871"
       inkscape:locked="false" />
  </sodipodi:namedview>
  <metadata
     id="metadata5">
    <rdf:RDF>
      <cc:Work
         rdf:about="">
        <dc:format>image/svg+xml</dc:format>
        <dc:type
           rdf:resource="http://purl.org/dc/dcmitype/StillImage" />
        <dc:title></dc:title>
      </cc:Work>
    </rdf:RDF>
  </metadata>
  <g
     inkscape:groupmode="layer"
     id="layer4"
     inkscape:label="ョ"
     transform="translate(-71.543778,-20.001709)">
    <rect
       style="opacity:0.8;fill:none;fill-opacity:1;stroke:#000000;stroke-width:0.03527778;stroke-linecap:butt;stroke-linejoin:round;stroke-miterlimit:4;stroke-dasharray:none;stroke-dashoffset:0;stroke-opacity:1;paint-order:normal"
       id="rect909"
       width="15.501633"
       height="19.557922"
       x="71.561417"
       y="20.019348" />
    <path
       transform="translate(-14.598957,-132.19028)"
       style="display:inline;fill:#000000;fill-opacity:1;stroke:none;stroke-width:0.03527778;stroke-linecap:butt;stroke-linejoin:miter;stroke-miterlimit:4;stroke-dasharray:none;stroke-opacity:1"
       d="m 87.357347,158.17081 c 0,0 0.105653,-0.24205 0.202827,-0.32483 0.123577,-0.10527 0.448846,-0.18898 0.448846,-0.18898 l 5.617503,0.01 6.055726,0.0964 c 0,0 0.499231,0.16021 0.639991,0.36056 0.20594,0.29312 0.17884,1.05971 0.17884,1.05971 l 0.002,11.75799 c 0,0 -0.0676,0.26105 -0.15611,0.35538 -0.0894,0.0953 -0.348217,0.17998 -0.348217,0.17998 l -12.447912,-0.0196 c 0,0 -0.160775,-0.0538 -0.219285,-0.1112 -0.06206,-0.0609 -0.122419,-0.23026 -0.122419,-0.23026 l -0.0029,-1.72906 c 0,0 0.02407,-0.2707 0.105715,-0.36938 0.07871,-0.0951 0.330729,-0.16679 0.330729,-0.16679 h 9.677534 l 0.0057,-3.18537 -8.917894,-0.008 c 0,0 -0.162726,-0.0106 -0.236655,-0.0414 -0.103313,-0.043 -0.206128,-0.105 -0.274019,-0.19397 -0.04845,-0.0635 -0.0819,-0.22513 -0.0819,-0.22513 l -0.0031,-1.43592 c 0.03484,-0.12898 0.04583,-0.21749 0.09938,-0.31294 0.04838,-0.0862 0.115231,-0.16489 0.194509,-0.224 0.07379,-0.055 0.251483,-0.11399 0.251483,-0.11399 l 8.955026,0.0526 0.02137,-2.97325 -9.545637,-0.0259 c 0,0 -0.09373,-0.006 -0.138088,-0.0197 -0.05073,-0.0159 -0.100513,-0.0391 -0.142441,-0.0718 -0.04005,-0.0312 -0.07459,-0.0711 -0.09968,-0.11529 -0.02046,-0.036 -0.03911,-0.11799 -0.03911,-0.11799 z"
       id="path830"
       inkscape:connector-curvature="0"
       sodipodi:nodetypes="cacccaccaccaccaccccaaccaaccccaaacc" />
  </g>
</svg>
