<?xml version="1.0" encoding="UTF-8" standalone="no"?>
<!-- Created with Inkscape (http://www.inkscape.org/) -->

<svg
   xmlns:dc="http://purl.org/dc/elements/1.1/"
   xmlns:cc="http://creativecommons.org/ns#"
   xmlns:rdf="http://www.w3.org/1999/02/22-rdf-syntax-ns#"
   xmlns:svg="http://www.w3.org/2000/svg"
   xmlns="http://www.w3.org/2000/svg"
   xmlns:sodipodi="http://sodipodi.sourceforge.net/DTD/sodipodi-0.dtd"
   xmlns:inkscape="http://www.inkscape.org/namespaces/inkscape"
   width="17.340975mm"
   height="19.593199mm"
   viewBox="0 0 17.340974 19.593198"
   version="1.1"
   id="svg8"
   inkscape:version="0.92.4 (5da689c313, 2019-01-14)"
   sodipodi:docname="Katakana-TSU-Small.svg">
  <defs
     id="defs2" />
  <sodipodi:namedview
     id="base"
     pagecolor="#ffffff"
     bordercolor="#666666"
     borderopacity="1.0"
     inkscape:pageopacity="0.0"
     inkscape:pageshadow="2"
     inkscape:zoom="7.919596"
     inkscape:cx="26.817319"
     inkscape:cy="31.106397"
     inkscape:document-units="mm"
     inkscape:current-layer="layer4"
     showgrid="false"
     fit-margin-top="0"
     fit-margin-left="0"
     fit-margin-right="0"
     fit-margin-bottom="0"
     inkscape:snap-global="true"
     showguides="true"
     inkscape:guide-bbox="true"
     inkscape:snap-midpoints="false"
     inkscape:snap-intersection-paths="false"
     inkscape:object-paths="true"
     inkscape:window-width="1920"
     inkscape:window-height="1031"
     inkscape:window-x="0"
     inkscape:window-y="24"
     inkscape:window-maximized="1">
    <sodipodi:guide
       position="-15.483993,0.017637604"
       orientation="1,0"
       id="guide855"
       inkscape:locked="false" />
    <sodipodi:guide
       position="0.017638677,0.017637604"
       orientation="1,0"
       id="guide857"
       inkscape:locked="false" />
    <sodipodi:guide
       position="17.323334,0.017638604"
       orientation="1,0"
       id="guide859"
       inkscape:locked="false" />
    <sodipodi:guide
       position="34.361774,0.017637604"
       orientation="1,0"
       id="guide861"
       inkscape:locked="false" />
    <sodipodi:guide
       position="54.540614,0.017638604"
       orientation="1,0"
       id="guide863"
       inkscape:locked="false" />
    <sodipodi:guide
       position="72.247214,0.017638604"
       orientation="1,0"
       id="guide865"
       inkscape:locked="false" />
    <sodipodi:guide
       position="-34.72404,0.017638604"
       orientation="1,0"
       id="guide871"
       inkscape:locked="false" />
  </sodipodi:namedview>
  <metadata
     id="metadata5">
    <rdf:RDF>
      <cc:Work
         rdf:about="">
        <dc:format>image/svg+xml</dc:format>
        <dc:type
           rdf:resource="http://purl.org/dc/dcmitype/StillImage" />
        <dc:title></dc:title>
      </cc:Work>
    </rdf:RDF>
  </metadata>
  <g
     inkscape:groupmode="layer"
     id="layer4"
     inkscape:label="ッ"
     transform="translate(-87.04541,-20.001709)">
    <rect
       style="opacity:0.8;fill:none;fill-opacity:1;stroke:#000000;stroke-width:0.03527778;stroke-linecap:butt;stroke-linejoin:round;stroke-miterlimit:4;stroke-dasharray:none;stroke-dashoffset:0;stroke-opacity:1;paint-order:normal"
       id="rect911"
       width="17.305696"
       height="19.55792"
       x="87.063049"
       y="20.019348" />
    <g
       transform="translate(-14.598957,-132.19028)"
       style="display:inline;stroke:none;fill:#000000;fill-opacity:1"
       id="g896">
      <path
         sodipodi:nodetypes="cacaaccaacacaaccaacc"
         inkscape:connector-curvature="0"
         id="path832"
         d="m 103.1122,159.9845 c 0,0 0.5354,1.3406 0.77814,2.02016 0.24135,0.67565 0.67398,2.04415 0.67398,2.04415 0,0 0.10608,0.13174 0.17598,0.17675 0.0736,0.0474 0.15954,0.0788 0.24614,0.0918 0.0689,0.0103 0.20856,-0.0127 0.20856,-0.0127 l 1.5965,-0.39288 c 0,0 0.13368,-0.0804 0.18718,-0.13601 0.0573,-0.0595 0.11388,-0.12672 0.13793,-0.20569 0.0216,-0.0709 1.3e-4,-0.2224 1.3e-4,-0.2224 0,0 -0.4549,-1.45654 -0.73495,-2.1655 -0.2653,-0.6716 -0.89365,-1.9734 -0.89365,-1.9734 0,0 -0.1023,-0.15539 -0.16884,-0.21929 -0.079,-0.0759 -0.16495,-0.1537 -0.26842,-0.1898 -0.0968,-0.0338 -0.30698,-0.0172 -0.30698,-0.0172 l -1.28271,0.42964 c 0,0 -0.15569,0.097 -0.21065,0.16798 -0.072,0.0931 -0.12044,0.20714 -0.14383,0.3225 -0.0187,0.0921 0.005,0.28193 0.005,0.28193 z"
         style="fill:#000000;stroke:none;stroke-width:0.03527778;stroke-linecap:butt;stroke-linejoin:miter;stroke-miterlimit:4;stroke-dasharray:none;stroke-opacity:1;fill-opacity:1" />
      <path
         style="fill:#000000;stroke:none;stroke-width:0.03527778;stroke-linecap:butt;stroke-linejoin:miter;stroke-miterlimit:4;stroke-dasharray:none;stroke-opacity:1;fill-opacity:1"
         d="m 108.13734,159.01463 c 0,0 0.50482,1.25184 0.73089,1.88754 0.2331,0.65548 0.64445,1.98509 0.64445,1.98509 0,0 0.10609,0.13173 0.17598,0.17675 0.0736,0.0474 0.15953,0.0789 0.24614,0.0918 0.0689,0.0103 0.20856,-0.0127 0.20856,-0.0127 l 1.43704,-0.29248 c 0,0 0.13368,-0.0805 0.18718,-0.13601 0.0573,-0.0595 0.11388,-0.12672 0.13793,-0.20569 0.0216,-0.0709 1.3e-4,-0.2224 1.3e-4,-0.2224 0,0 -0.33381,-1.46658 -0.57549,-2.17731 -0.20697,-0.60865 -0.746,-1.77851 -0.746,-1.77851 0,0 -0.1023,-0.15539 -0.16884,-0.21929 -0.0791,-0.0759 -0.16496,-0.15369 -0.26842,-0.1898 -0.0968,-0.0338 -0.30698,-0.0172 -0.30698,-0.0172 l -1.34767,0.391 c 0,0 -0.16079,0.0551 -0.21656,0.11482 -0.0804,0.086 -0.12035,0.20716 -0.14383,0.3225 -0.0182,0.0935 3e-4,0.18929 0.005,0.28189 z"
         id="path892"
         inkscape:connector-curvature="0"
         sodipodi:nodetypes="cacaaccaacacaaccacc" />
    </g>
  </g>
</svg>
