<?xml version="1.0" encoding="UTF-8" standalone="no"?>
<!-- Created with Inkscape (http://www.inkscape.org/) -->

<svg
   xmlns:dc="http://purl.org/dc/elements/1.1/"
   xmlns:cc="http://creativecommons.org/ns#"
   xmlns:rdf="http://www.w3.org/1999/02/22-rdf-syntax-ns#"
   xmlns:svg="http://www.w3.org/2000/svg"
   xmlns="http://www.w3.org/2000/svg"
   xmlns:sodipodi="http://sodipodi.sourceforge.net/DTD/sodipodi-0.dtd"
   xmlns:inkscape="http://www.inkscape.org/namespaces/inkscape"
   width="37.832897mm"
   height="24.641314mm"
   viewBox="0 0 37.832896 24.641313"
   version="1.1"
   id="svg8"
   inkscape:version="0.92.4 (5da689c313, 2019-01-14)"
   sodipodi:docname="SmilingFace-White.svg">
  <defs
     id="defs2" />
  <sodipodi:namedview
     id="base"
     pagecolor="#ffffff"
     bordercolor="#666666"
     borderopacity="1.0"
     inkscape:pageopacity="0.0"
     inkscape:pageshadow="2"
     inkscape:zoom="4"
     inkscape:cx="76.440121"
     inkscape:cy="52.638683"
     inkscape:document-units="mm"
     inkscape:current-layer="layer4"
     showgrid="false"
     fit-margin-top="0"
     fit-margin-left="0"
     fit-margin-right="0"
     fit-margin-bottom="0"
     inkscape:snap-global="false"
     showguides="true"
     inkscape:guide-bbox="true"
     inkscape:snap-midpoints="false"
     inkscape:snap-intersection-paths="false"
     inkscape:object-paths="true"
     inkscape:window-width="1920"
     inkscape:window-height="1027"
     inkscape:window-x="0"
     inkscape:window-y="24"
     inkscape:window-maximized="1">
    <sodipodi:guide
       position="63.830542,5.0657523"
       orientation="1,0"
       id="guide855"
       inkscape:locked="false" />
    <sodipodi:guide
       position="79.332175,5.0657523"
       orientation="1,0"
       id="guide857"
       inkscape:locked="false" />
    <sodipodi:guide
       position="96.63787,5.0657533"
       orientation="1,0"
       id="guide859"
       inkscape:locked="false" />
    <sodipodi:guide
       position="113.67631,5.0657523"
       orientation="1,0"
       id="guide861"
       inkscape:locked="false" />
    <sodipodi:guide
       position="133.85515,5.0657533"
       orientation="1,0"
       id="guide863"
       inkscape:locked="false" />
    <sodipodi:guide
       position="151.56175,5.0657533"
       orientation="1,0"
       id="guide865"
       inkscape:locked="false" />
    <sodipodi:guide
       position="44.590495,5.0657533"
       orientation="1,0"
       id="guide871"
       inkscape:locked="false" />
    <sodipodi:guide
       position="0.017639441,5.0657533"
       orientation="1,0"
       id="guide844"
       inkscape:locked="false" />
    <sodipodi:guide
       position="0.017638841,0.017641143"
       orientation="0,1"
       id="guide846"
       inkscape:locked="false" />
    <sodipodi:guide
       position="37.815258,5.0657533"
       orientation="1,0"
       id="guide848"
       inkscape:locked="false" />
    <sodipodi:guide
       position="0.017638841,24.623673"
       orientation="0,1"
       id="guide850"
       inkscape:locked="false" />
    <sodipodi:guide
       position="0.017639441,5.0657533"
       orientation="0,1"
       id="guide852"
       inkscape:locked="false" />
  </sodipodi:namedview>
  <metadata
     id="metadata5">
    <rdf:RDF>
      <cc:Work
         rdf:about="">
        <dc:format>image/svg+xml</dc:format>
        <dc:type
           rdf:resource="http://purl.org/dc/dcmitype/StillImage" />
        <dc:title></dc:title>
      </cc:Work>
    </rdf:RDF>
  </metadata>
  <g
     inkscape:groupmode="layer"
     id="layer4"
     inkscape:label="レイヤー 4"
     style="display:inline"
     transform="translate(-7.7308724,-20.001709)">
    <rect
       style="opacity:0.8;fill:none;fill-opacity:1;stroke:#000000;stroke-width:0.03527778;stroke-linecap:butt;stroke-linejoin:round;stroke-miterlimit:4;stroke-dasharray:none;stroke-dashoffset:0;stroke-opacity:1;paint-order:normal"
       id="rect854"
       width="37.797619"
       height="24.606035"
       x="7.7485113"
       y="20.019348" />
  </g>
  <g
     inkscape:groupmode="layer"
     id="layer1"
     inkscape:label="レイヤー 5"
     style="display:inline"
     transform="translate(-7.7308724,-20.001709)">
    <path
       id="path884"
       style="display:inline;fill:#000000;fill-opacity:1;stroke:none;stroke-width:0.13333334;stroke-linecap:butt;stroke-linejoin:miter;stroke-miterlimit:4;stroke-dasharray:none;stroke-opacity:1"
       d="m 72.007812,120.8457 c -0.492273,0.002 -0.993663,0.0553 -1.501953,0.11524 -0.228015,0.0272 -0.685547,0.0742 -0.685547,0.0742 0,0 -0.06591,1.20063 -0.08594,1.80078 -0.02154,0.64845 0.07458,1.30615 -0.03711,1.94531 -0.06618,0.37875 -0.394149,0.70799 -0.371094,1.0918 0.01308,0.21721 0.21725,0.38234 0.283203,0.58984 0.107565,0.33819 0.08325,0.70678 0.177734,1.04883 0.08776,0.31778 0.359375,0.92187 0.359375,0.92187 0,0 -0.04325,-1.01702 0.0625,-1.50976 0.06947,-0.32361 0.369141,-0.92188 0.369141,-0.92188 0,0 0.346304,0.73048 0.527344,1.0918 0.714678,1.42692 1.332214,2.91331 2.207031,4.24805 0.913039,1.39309 1.97824,2.69558 3.146484,3.88281 0.603255,0.61308 1.419573,1.00254 1.978516,1.65625 0.326374,0.38173 0.454471,0.90471 0.775391,1.29102 0.631562,0.76025 1.416069,1.39206 2.21875,1.96874 0.937999,0.67389 1.951208,1.25181 3.005859,1.72266 1.26717,0.56572 2.575831,1.13852 3.953125,1.3086 0.577538,0.0711 1.180638,-0.29036 1.740234,-0.13086 0.524712,0.14966 0.835467,0.71841 1.322266,0.96484 0.493448,0.24994 1.030746,0.45735 1.582031,0.50195 0.398034,0.0321 0.788859,-0.12809 1.185547,-0.17383 1.41097,-0.16365 2.827958,-0.44145 4.246094,-0.36132 0.810535,0.0457 1.575137,0.49741 2.386727,0.47851 0.72839,-0.0178 1.44876,-0.25238 2.12109,-0.5332 0.86281,-0.36038 1.56611,-1.02898 2.39844,-1.45508 0.78607,-0.40244 1.60397,-0.74905 2.43945,-1.03516 0.71148,-0.24351 1.48704,-0.28325 2.17969,-0.57617 1.01753,-0.43026 1.91041,-1.11178 2.83984,-1.70898 0.82503,-0.53012 1.5908,-1.15101 2.42774,-1.66211 0.59992,-0.36635 1.2856,-0.59232 1.85546,-1.00391 0.58265,-0.42081 1.13204,-0.90695 1.57032,-1.47656 0.32242,-0.41904 0.34926,-1.05633 0.7539,-1.39648 0.17369,-0.14589 0.46072,-0.0845 0.64649,-0.21485 0.88928,-0.62407 1.31825,-1.72825 2.02344,-2.55469 0.7239,-0.84839 1.42223,-1.73063 2.26171,-2.46484 0.48758,-0.42641 1.02608,-0.80292 1.59571,-1.11133 0.39815,-0.21543 0.89981,-0.23077 1.25781,-0.50781 0.29806,-0.23074 0.48436,-0.58436 0.67383,-0.91016 0.11308,-0.19445 0.28969,-0.39268 0.27344,-0.61718 -0.0214,-0.29847 -0.24458,-0.57079 -0.47657,-0.75977 -0.21282,-0.17348 -0.77343,-0.28906 -0.77343,-0.28906 0,0 0.17603,-0.27322 0.19531,-0.42969 0.0284,-0.23025 0.014,-0.49846 -0.12305,-0.68555 -0.22552,-0.30784 -0.64675,-0.42775 -1.01367,-0.5332 -0.5431,-0.15647 -1.1293,-0.0695 -1.69141,-0.12695 -0.51883,-0.0533 -1.08165,0.0267 -1.55078,-0.20117 -0.25433,-0.12356 -0.36241,-0.44938 -0.60547,-0.59375 -0.29756,-0.17689 -0.99414,-0.30469 -0.99414,-0.30469 0,0 -1.5645,1.45224 -2.2539,2.26367 -0.91258,1.07403 -1.82541,2.17679 -2.47461,3.42773 -0.0959,0.18475 -0.10429,0.40654 -0.20313,0.58985 -0.53639,0.99432 -1.18667,1.97958 -2.07031,2.68359 -0.30087,0.23966 -0.74496,0.24658 -1.04883,0.48242 -0.8157,0.63323 -1.10349,1.81742 -1.95312,2.4043 -0.39549,0.27315 -0.93258,0.25401 -1.36915,0.45508 -0.53958,0.24854 -0.98243,0.67879 -1.52539,0.91992 -1.12964,0.50158 -2.45517,0.50012 -3.55078,1.07227 -0.36155,0.18882 -0.6217,0.53034 -0.95898,0.75976 -0.50529,0.34356 -1.0136,0.70405 -1.58594,0.91797 -0.80705,0.30161 -1.69048,0.33899 -2.539065,0.48828 -0.858887,0.15111 -1.712596,0.3781 -2.583985,0.41211 -1.007297,0.0397 -2.023224,-0.0524 -3.013672,-0.24023 -0.447892,-0.0848 -0.870418,-0.27258 -1.308593,-0.39844 -0.676793,-0.19442 -1.375249,-0.31607 -2.039063,-0.55078 -0.947365,-0.33509 -1.863916,-0.75969 -2.757812,-1.21875 -1.08553,-0.55744 -2.117936,-1.21508 -3.154297,-1.85938 -0.535125,-0.33267 -1.045506,-0.7018 -1.580078,-1.03515 -0.769947,-0.48042 -1.574315,-0.90632 -2.341797,-1.39063 -0.466341,-0.29431 -1.048789,-0.47533 -1.375,-0.91992 -0.689499,-0.93978 -0.566961,-2.26647 -0.982422,-3.35547 -0.228831,-0.59981 -0.551426,-1.15899 -0.828125,-1.73828 -0.398392,-0.83407 -0.588065,-1.80852 -1.199219,-2.50195 -0.784271,-0.88989 -1.854933,-1.57971 -2.988281,-1.92969 -0.469419,-0.14513 -0.953039,-0.19372 -1.445313,-0.19141 z m -1.234374,2.15821 c 0.145851,-0.034 0.319601,0.0943 0.386718,0.22851 0.108057,0.21581 0.03515,0.50555 -0.07813,0.71875 -0.09717,0.18331 -0.273989,0.46172 -0.472656,0.40235 -0.250243,-0.0748 -0.259998,-0.49148 -0.222656,-0.75 0.03401,-0.23547 0.155204,-0.54504 0.386719,-0.59961 z m 54.019532,0.10156 c 0.2066,0.0239 0.40672,0.12875 0.48633,0.29883 0.11255,0.24037 -0.0283,0.58966 -0.22852,0.76367 -0.20356,0.17688 -0.54539,0.20727 -0.80078,0.12109 -0.18678,-0.0631 -0.41458,-0.22849 -0.41016,-0.42578 0.005,-0.20031 0.29497,-0.26939 0.43555,-0.41211 0.10802,-0.1096 0.16041,-0.31761 0.3125,-0.34179 0.0664,-0.0106 0.13621,-0.0119 0.20508,-0.004 z m -4.76758,0.45508 c 0.18849,-0.004 0.39208,0.11387 0.49609,0.27148 0.0946,0.14287 0.10151,0.34807 0.0508,0.51172 -0.0498,0.16063 -0.17008,0.32356 -0.32618,0.38672 -0.22594,0.0911 -0.55956,0.10146 -0.72656,-0.0762 -0.17567,-0.18671 -0.15426,-0.54164 -0.0332,-0.76758 0.0991,-0.18482 0.32933,-0.32164 0.53906,-0.32617 z m -11.73331,-19.17011 c 0,0 0.073,-0.73837 0.0333,-1.10457 -0.0531,-0.48699 -0.40951,-0.9377 -0.3594,-1.42499 0.0384,-0.37342 0.34277,-0.66868 0.49197,-1.01318 0.23683,-0.54686 0.58854,-1.076033 0.63874,-1.669872 0.0486,-0.574828 -0.3445,-1.120441 -0.33819,-1.69731 0.007,-0.617084 0.18467,-1.229518 0.40136,-1.80737 0.32009,-0.853607 0.76991,-1.666129 1.30883,-2.401437 0.42818,-0.584239 0.96411,-1.085896 1.50635,-1.566122 0.59606,-0.527887 1.24825,-0.991446 1.90905,-1.435578 0.36299,-0.24378 0.7208,-0.509141 1.12622,-0.673248 0.64587,-0.261543 1.34935,-0.353763 2.03507,-0.477467 0.6966,-0.125481 1.41874,-0.100536 2.10657,-0.267591 0.93015,-0.226016 1.74008,-0.979427 2.69725,-0.985285 0.67539,-0.0038 1.25906,0.497537 1.91156,0.671887 1.29577,0.346204 2.70696,0.247559 3.9556,0.737272 1.06402,0.417336 1.911,1.256391 2.8991,1.830803 0.47782,0.277796 1.11212,0.353008 1.46306,0.780133 0.36522,0.444321 0.35762,1.094097 0.50168,1.650897 0.18225,0.704353 0.3284,1.418117 0.45792,2.134035 0.0722,0.399042 0.12718,0.801184 0.17771,1.203553 0.099,0.788409 0.13055,1.584869 0.24575,2.371048 0.11025,0.752126 0.36136,1.483012 0.42568,2.240462 0.037,0.43389 -0.0227,0.87069 -0.0238,1.30617 -0.003,0.89707 0.0333,2.69095 0.0333,2.69095 0,0 -0.8276,-0.0658 -1.22611,-0.1731 -0.42394,-0.11452 -0.78393,-0.44531 -1.21999,-0.4969 -0.71678,-0.0847 -1.4192,0.34923 -2.14062,0.32618 -1.01292,-0.0302 -2.97055,-0.64744 -2.97055,-0.64744 0,0 0.18531,-0.65563 0.26809,-0.98604 0.14067,-0.5613 0.28165,-1.12324 0.38839,-1.69198 0.19892,-1.05982 0.49677,-2.122884 0.46875,-3.200881 -0.0178,-0.690255 -0.181,-1.378545 -0.40624,-2.031269 -0.24574,-0.712139 -0.57675,-1.407156 -1.01786,-2.017852 -0.41589,-0.575774 -0.85855,-1.213531 -1.50447,-1.508939 -0.88185,-0.403313 -1.93247,-0.233953 -2.90178,-0.206362 -0.89834,0.02646 -1.8267,0.0446 -2.67411,0.343937 -0.51716,0.182551 -0.88542,0.676724 -1.40178,0.861619 -0.62789,0.224882 -1.403,-0.05821 -1.98215,0.272504 -0.43511,0.248315 -0.65287,0.763124 -0.93303,1.178532 -0.39052,0.579061 -0.76197,1.178872 -1.03572,1.82143 -0.20504,0.481247 -0.25482,1.017751 -0.44645,1.504479 -0.12726,0.323149 -0.32542,0.614589 -0.46428,0.933014 -0.17865,0.409658 -0.33845,0.828358 -0.47322,1.254458 -0.11058,0.34961 -0.22518,0.70209 -0.27424,1.06553 -0.0397,0.29442 -0.0276,0.59395 -0.0147,0.89053 0.0106,0.24189 0.076,0.72219 0.076,0.72219 0,0 -0.62519,-0.43589 -0.97155,-0.39163 -0.22987,0.0302 -0.46595,0.20145 -0.55871,0.41374 -0.0673,0.15421 -0.02,0.35074 0.0553,0.50121 0.16479,0.32957 0.59936,0.45101 0.80627,0.75579 0.0905,0.13342 0.27412,0.32126 0.17718,0.45003 -0.13482,0.17915 -0.45165,-0.0113 -0.66964,-0.0635 -0.44372,-0.10696 -0.84595,-0.34318 -1.27255,-0.50525 -0.42585,-0.16176 -1.2845,-0.46707 -1.2845,-0.46707 z m -40.639193,-1.70789 c 0,0 0.447537,-3.456987 0.893752,-5.136684 0.252472,-0.950362 0.580146,-1.886514 1.00334,-2.774098 0.440364,-0.923641 1.021039,-1.775093 1.585497,-2.62851 0.456321,-0.689991 0.897343,-1.399143 1.45381,-2.0112 0.559722,-0.615647 1.188775,-1.177247 1.874997,-1.647761 0.507069,-0.347716 1.044397,-0.68296 1.635077,-0.853568 0.507405,-0.146646 1.057897,-0.04384 1.579211,-0.128504 0.96065,-0.156095 1.86545,-0.617424 2.835492,-0.696227 0.565372,-0.04573 1.144086,0.0038 1.69643,0.133795 0.312151,0.07295 0.577591,0.299339 0.892857,0.357166 0.863633,0.15874 1.772572,-0.215433 2.63393,-0.0446 0.828094,0.164032 1.598124,0.575093 2.324568,1.005128 0.501536,0.297071 0.938661,0.692976 1.380336,1.073234 0.507032,0.436536 0.972212,0.919484 1.453815,1.383912 0.367256,0.354142 0.844263,0.625247 1.094868,1.069644 0.496184,0.87995 0.354898,1.998048 0.690395,2.950904 0.320429,0.910035 1.051571,1.665865 1.251799,2.609613 0.111307,0.524561 0.01625,1.07554 -0.0469,1.608038 -0.07185,0.604308 -0.174199,1.212478 -0.376101,1.786618 -0.263093,0.74805 -0.597918,1.48876 -1.075019,2.12213 -0.256856,0.34092 -0.546311,0.70273 -0.9384,0.8716 -0.335622,0.14476 -0.737412,0.15118 -1.093973,0.071 -0.779727,-0.17499 -1.368056,-0.83418 -2.09642,-1.16292 -0.569817,-0.25701 -1.767202,-0.62819 -1.767202,-0.62819 0,0 0.866873,-1.27624 1.026335,-2.01204 0.207987,-0.959807 0.12359,-1.995096 -0.132132,-2.943303 -0.297109,-1.101619 -0.750433,-2.256908 -1.586839,-3.032996 -0.593881,-0.551093 -1.448855,-0.754091 -2.231694,-0.962759 -1.330295,-0.354519 -4.103554,-0.468548 -4.103554,-0.468548 0,0 -1.723336,0.24189 -2.545538,0.512315 -0.453222,0.148914 -0.923324,0.308788 -1.296888,0.605556 -0.650434,0.516737 -1.161173,1.220712 -1.537712,1.961159 -0.371415,0.730394 -0.545107,1.555314 -0.669642,2.365191 -0.149254,0.970545 -0.259956,1.978165 -0.08614,2.944635 0.05261,0.29253 0.343786,0.52939 0.335018,0.82654 -0.0091,0.31446 -0.315326,0.55087 -0.405377,0.85228 -0.101707,0.34054 -0.145096,1.05604 -0.145096,1.05604 0,0 -1.265772,-0.11754 -1.890433,-0.23093 -0.623384,-0.11301 -1.229019,-0.30878 -1.84752,-0.44598 -0.587335,-0.1304 -1.768974,-0.35792 -1.768974,-0.35792 z M 121.62695,28.757812 c -0.51592,0.04826 -1.02989,0.223032 -1.52539,0.376954 -0.52572,0.163275 -0.97202,0.545601 -1.50781,0.671875 -0.73215,0.172346 -1.53672,-0.12912 -2.25391,0.09766 -1.11125,0.351496 -2.00483,1.196401 -2.94531,1.884765 -0.84434,0.618029 -1.64724,1.295738 -2.41211,2.009766 -0.62932,0.58749 -1.23617,1.202042 -1.78515,1.865234 -0.70683,0.853834 -1.31561,1.785545 -1.93165,2.707032 -0.51535,0.77091 -0.96048,1.587671 -1.4746,2.359375 -0.59948,0.899867 -1.38474,1.682742 -1.875,2.646484 -0.44125,0.867364 -0.72058,1.816057 -0.9336,2.765625 -0.17839,0.795288 -0.2832,2.429688 -0.2832,2.429688 0,0 -1.21459,0.0528 -1.82227,0.04297 -0.67105,-0.01134 -1.347411,-0.0176 -2.011716,-0.111328 -0.465894,-0.0669 -0.906179,-0.364218 -1.375,-0.322265 -0.463396,0.04157 -0.827548,0.449742 -1.28125,0.552734 -0.957687,0.217323 -1.966752,0.01281 -2.943359,0.115234 -0.618164,0.06539 -1.217678,0.276785 -1.837891,0.31836 -0.783023,0.05253 -1.567363,-0.118506 -2.351562,-0.08789 -0.914653,0.03402 -2.728516,0.316406 -2.728516,0.316406 0,0 0.48787,-3.628757 1.53125,-5.041015 0.618524,-0.837203 1.748759,-1.130913 2.589844,-1.744141 0.876813,-0.639269 1.723655,-1.320582 2.558594,-2.013672 0.973727,-0.80829 1.844784,-1.741033 2.857422,-2.5 0.564858,-0.423345 1.785156,-1.138672 1.785156,-1.138672 0,0 -0.411791,-0.354642 -0.628906,-0.517578 -0.338495,-0.253991 -0.787233,-0.38229 -1.048828,-0.714851 C 95.862021,35.56102 95.882464,35.312517 95.769531,35.134766 95.647075,34.94201 95.472637,34.783051 95.291016,34.644531 95.095123,34.49524 94.840863,34.436023 94.644531,34.287109 94.495391,34.174102 94.387518,34.013522 94.25,33.886719 c -0.127975,-0.117922 -0.26494,-0.224756 -0.400391,-0.333985 -0.09917,-0.08013 -0.300781,-0.236328 -0.300781,-0.236328 0,0 -2.706905,0.966585 -4.003906,1.580078 -1.228449,0.581027 -2.415916,1.253011 -3.5625,1.982422 -0.902903,0.574375 -1.799746,1.172438 -2.603516,1.878906 -0.808127,0.710287 -1.62312,1.451116 -2.208984,2.353516 -0.362079,0.557745 -0.411174,1.280297 -0.773438,1.837891 -0.486353,0.748611 -1.385486,1.179279 -1.833984,1.951172 -0.574881,0.989367 -0.73077,2.171013 -1.007812,3.28125 -0.191358,0.766904 -0.451172,2.328125 -0.451172,2.328125 0,0 -1.350384,0.388353 -2.00586,0.638672 -0.621449,0.237353 -1.197949,0.58147 -1.820312,0.816406 -1.906708,0.719773 -3.868824,1.292222 -5.839844,1.810547 -1.168479,0.307275 -2.411117,0.346753 -3.542969,0.769531 -0.438126,0.163653 -0.811368,0.466256 -1.230469,0.673828 -0.801844,0.397115 -1.654099,0.683242 -2.451171,1.089844 -0.311622,0.159118 -0.573418,0.425901 -0.908203,0.527344 -0.405619,0.122833 -0.858028,-0.0197 -1.269532,0.08008 -0.475816,0.117543 -0.898273,0.39113 -1.341797,0.599609 -0.564049,0.264945 -1.128811,0.532982 -1.677734,0.828125 -0.479573,0.257764 -0.972472,0.49836 -1.410156,0.822266 -1.299319,0.961549 -2.455273,2.113491 -3.560547,3.292968 -0.938725,1.001764 -1.780392,2.093254 -2.59375,3.199219 -0.840185,1.142438 -1.480977,2.426572 -2.355469,3.542969 -1.094135,1.3968 -2.567123,2.477491 -3.597656,3.921875 -0.743906,1.042658 -1.290568,2.217129 -1.833985,3.376953 -0.868489,1.853631 -1.522831,3.799894 -2.271484,5.705078 -0.742847,1.890406 -1.342254,3.841956 -2.203125,5.681641 -0.393585,0.841096 -1.132385,1.534646 -1.349609,2.4375 -0.138596,0.705335 -0.671447,1.281103 -0.88086,1.96875 -0.3233,1.061669 -0.375666,2.187303 -0.5625,3.28125 -0.254702,1.491439 -0.531919,2.979123 -0.761718,4.474609 -0.154432,1.00497 -0.325266,2.00876 -0.416016,3.02148 -0.18172,2.02787 -0.28529,4.06771 -0.257812,6.10352 0.0098,0.7319 0.198567,1.45894 0.152343,2.18945 -0.04883,0.77155 -0.436715,1.50244 -0.451172,2.27539 -0.01436,0.76566 0.234135,1.51472 0.363282,2.26953 0.20485,1.19713 0.392285,2.39805 0.654297,3.58399 0.694377,3.14294 1.478759,6.27003 2.427734,9.3457 0.374664,1.21433 0.926939,2.36918 1.287109,3.58789 0.336756,1.13945 0.410932,2.35314 0.814453,3.4707 0.291667,0.80777 0.733301,1.55593 1.150391,2.30664 0.32931,0.59275 0.706762,1.15639 1.064453,1.73243 0.399576,0.6435 0.847666,1.25899 1.207031,1.92578 0.305348,0.56659 0.461591,1.21006 0.802735,1.75586 0.166677,0.26683 0.599609,0.72851 0.599609,0.72851 0,0 -0.415234,-0.65787 -0.529297,-1.02539 h -0.002 v -0.002 c -0.107074,-0.29972 -0.255859,-0.60176 -0.255859,-0.91992 0,-0.29178 -0.03639,-0.73355 0.234375,-0.8418 0.289058,-0.11565 0.591001,0.2505 0.802734,0.47852 0.361361,0.38944 0.573468,0.91312 0.712891,1.42578 0.07351,0.27023 0.153699,0.57514 0.05664,0.83789 -0.05382,0.14551 -0.217246,0.22129 -0.326172,0.33203 -0.05873,0.0597 -0.177734,0.17969 -0.177734,0.17969 0,0 0.154301,0.21095 0.244141,0.30468 0.215773,0.22489 0.488696,0.39089 0.705078,0.61524 0.636639,0.66013 1.124647,1.4499 1.732422,2.13672 0.861838,0.97391 1.780067,1.89653 2.708984,2.80664 0.499389,0.48933 1.005265,0.97428 1.539063,1.42578 0.531424,0.4495 1.07335,0.88908 1.652343,1.27539 0.59692,0.39825 1.254824,0.69751 1.869141,1.06836 0.915326,0.55257 1.766129,1.21488 2.707031,1.72266 0.799737,0.43162 1.667974,0.72399 2.486328,1.11914 0.655219,0.31634 1.327031,0.60907 1.939453,1.00195 0.762184,0.48896 1.340066,1.24697 2.138672,1.67383 0.606471,0.32428 1.304548,0.43333 1.958985,0.64453 0.894572,0.28875 1.774448,0.6362 2.689453,0.85156 0.980757,0.23093 2.020277,0.18238 2.986328,0.46875 0.751759,0.22262 1.411616,0.68565 2.146484,0.95899 1.113695,0.41427 2.252236,0.7762 3.414063,1.02539 0.657883,0.14097 1.340528,0.14046 2.001953,0.26367 1.620457,0.30236 3.204141,0.77357 4.804688,1.16797 1.638575,0.40376 3.247488,0.94907 4.912109,1.22656 1.877526,0.31294 3.788456,0.39198 5.689453,0.48828 1.872835,0.0949 3.750173,0.0486 5.625,0.0879 1.44347,0.0302 2.890827,-10e-4 4.330077,0.11328 0.78622,0.0624 1.55894,0.25732 2.3457,0.3125 0.9024,0.0635 1.80831,0.031 2.71289,0.0234 1.01497,-0.0113 2.0299,-0.0891 3.04492,-0.0898 0.82568,-6.5e-4 1.64955,0.10006 2.47461,0.0684 1.0771,-0.0416 3.2168,-0.33594 3.2168,-0.33594 0,0 3.4527,-0.58833 5.17773,-0.89258 2.71756,-0.47928 5.45274,-0.88072 8.14844,-1.4707 1.80095,-0.39413 3.61898,-0.76174 5.35547,-1.38086 1.85476,-0.66134 3.60006,-1.5999 5.36328,-2.47657 2.09124,-1.03973 4.1871,-2.08064 6.17969,-3.29882 1.26032,-0.7705 2.42113,-1.69569 3.64062,-2.5293 1.50863,-1.03128 3.10233,-1.94186 4.54883,-3.05859 1.20274,-0.92856 2.37659,-1.90913 3.41797,-3.01563 1.526,-1.62142 2.8647,-3.42007 4.10742,-5.26758 1.18206,-1.75729 2.25454,-3.59707 3.16797,-5.50781 1.23387,-2.58108 2.21079,-5.28398 3.10352,-8.00195 0.44466,-1.35375 0.88268,-2.71981 1.11914,-4.125 0.19563,-1.16247 0.13088,-2.35576 0.24219,-3.5293 0.0934,-0.98491 0.17586,-1.97242 0.35546,-2.94531 0.1852,-1.0032 0.64157,-1.95552 0.74219,-2.97071 0.0639,-0.64436 -0.12516,-1.29277 -0.0918,-1.93945 0.028,-0.54134 0.0914,-1.08728 0.24415,-1.60742 0.14925,-0.50838 0.52081,-0.93689 0.64843,-1.45117 0.29862,-1.20321 0.39451,-2.48036 0.24414,-3.71094 -0.0682,-0.55827 -0.34238,-1.07171 -0.51367,-1.60742 -0.35682,-1.1161 -0.75772,-2.21894 -1.07226,-3.34766 -0.20871,-0.74899 -0.45893,-1.49616 -0.53907,-2.26953 -0.0776,-0.7485 0.0309,-1.505872 0.0605,-2.257809 0.0321,-0.81891 0.23656,-1.642858 0.12695,-2.455078 -0.10847,-0.803981 -0.49738,-1.544928 -0.76562,-2.310547 -0.18803,-0.536731 -0.46079,-1.046211 -0.5918,-1.59961 -0.24162,-1.020699 -0.12273,-2.102436 -0.34765,-3.126953 -0.28952,-1.318904 -0.79634,-2.582748 -1.2793,-3.84375 -0.52906,-1.381341 -1.05502,-2.776202 -1.77149,-4.070312 -1.109,-2.003036 -2.51175,-3.830387 -3.88281,-5.664063 -1.11672,-1.493518 -2.30888,-2.931478 -3.53125,-4.339844 -1.23381,-1.421554 -2.44658,-2.874609 -3.83594,-4.144531 -1.04158,-0.952063 -2.147,-1.850857 -3.35156,-2.585937 -2.37868,-1.451566 -5.1722,-2.126946 -7.5664,-3.552735 -0.91823,-0.546859 -1.71646,-1.275471 -2.58204,-1.902343 -0.73054,-0.529059 -1.47701,-1.0359 -2.20507,-1.56836 -0.77859,-0.569423 -1.48932,-1.235528 -2.3125,-1.738281 -0.51485,-0.314457 -1.10847,-0.485894 -1.62891,-0.791016 -0.27953,-0.164031 -0.79687,-0.55664 -0.79688,-0.55664 0,0 0.0377,-1.12539 0.31641,-1.587891 0.38921,-0.645921 1.13512,-0.999476 1.75586,-1.427734 0.45746,-0.315591 0.98741,-0.518155 1.44336,-0.835938 0.43028,-0.300094 0.73606,-0.777134 1.20898,-1.003906 0.39307,-0.188598 0.87519,-0.103357 1.28125,-0.261719 0.70109,-0.273638 1.24862,-0.856082 1.9336,-1.167969 0.7401,-0.337132 1.53718,-0.536015 2.32226,-0.748046 0.54407,-0.147024 1.0999,-0.249833 1.65235,-0.361328 0.46603,-0.09411 1.40234,-0.257813 1.40234,-0.257813 0,0 -0.31722,-0.463061 -0.47461,-0.695313 -0.15708,-0.231684 -0.36593,-0.436818 -0.46875,-0.697265 -0.11221,-0.284221 -0.0522,-0.614962 -0.14453,-0.90625 -0.13912,-0.43903 -0.36024,-0.851623 -0.60742,-1.240235 -0.17023,-0.267589 -0.43671,-0.466898 -0.59766,-0.740234 -0.11289,-0.191622 -0.25195,-0.61914 -0.25195,-0.61914 0,0 -1.49953,0.300879 -2.24219,0.484374 -0.8391,0.207497 -1.67366,0.437575 -2.49804,0.697266 -1.12628,0.354898 -2.23466,0.765174 -3.3418,1.175781 -0.50811,0.188599 -1.00252,0.409825 -1.51367,0.589844 -0.48156,0.169701 -1.00095,0.239533 -1.46094,0.460938 -0.8588,0.413556 -1.58073,1.065813 -2.37305,1.595703 -0.74274,0.496743 -1.5146,0.952255 -2.23242,1.484375 -0.5707,0.42308 -1.1748,0.822517 -1.64453,1.355469 -0.41831,0.474594 -0.6825,1.06647 -1.01367,1.605468 -0.21646,0.352252 -0.63672,1.064453 -0.63672,1.064453 0,0 -1.14763,0.249989 -1.72266,0.191407 -0.63341,-0.06425 -1.20371,-0.414864 -1.8164,-0.587891 -0.54807,-0.154583 -1.10737,-0.27166 -1.66211,-0.400391 -0.55245,-0.128126 -1.10433,-0.258463 -1.66016,-0.371093 -0.59156,-0.119811 -1.19043,-0.202582 -1.78125,-0.326172 -0.59709,-0.124725 -1.18235,-0.304155 -1.78125,-0.419922 -0.64136,-0.123969 -1.28895,-0.216308 -1.9375,-0.294922 -0.371,-0.04498 -0.75705,1.33e-4 -1.11719,-0.09961 -0.28184,-0.07786 -0.78906,-0.38086 -0.78906,-0.38086 0,0 -0.13262,-0.710448 -0.0586,-1.054687 0.10053,-0.467528 0.42934,-0.855687 0.66211,-1.273438 0.19929,-0.357543 0.41972,-0.702738 0.6289,-1.054687 0.38809,-0.652914 0.75249,-1.320005 1.16016,-1.960938 0.85751,-1.348119 1.65617,-2.75232 2.70117,-3.960937 0.78939,-0.912983 1.66618,-1.775166 2.66602,-2.451172 0.91255,-0.617046 1.95947,-1.010272 2.98046,-1.423828 1.23825,-0.501581 3.80079,-1.277344 3.80079,-1.277344 0,0 0.14625,-0.50582 0.18945,-0.765625 0.0421,-0.253228 -0.0127,-0.523496 0.0664,-0.767578 0.0879,-0.272126 0.35897,-0.4607 0.4414,-0.734375 0.0738,-0.244914 -0.0635,-0.53064 0.0332,-0.767578 0.11868,-0.291402 0.43473,-0.455604 0.62891,-0.703125 0.16018,-0.204095 0.34797,-0.400462 0.44141,-0.642578 0.0588,-0.152315 0.021,-0.32963 0.0664,-0.486328 0.0912,-0.314079 0.40821,-0.890626 0.40821,-0.890626 0,0 -2.65233,0.140953 -3.9375,-0.128906 -0.43459,-0.09146 -0.79446,-0.4521 -1.23633,-0.496094 -0.17209,-0.0171 -0.34365,-0.01609 -0.51563,0 z m -14.21484,29.878907 c 0,0 2.82224,0.07717 4.20312,0.339843 1.14421,0.217323 2.22682,0.685484 3.34375,1.015626 1.30182,0.384754 3.91407,1.123046 3.91407,1.123046 0,0 -0.005,0.922602 -0.11133,1.367188 -0.11815,0.494135 -0.38846,0.940008 -0.57617,1.412109 -0.15134,0.380599 -0.32366,0.753465 -0.44532,1.144531 -0.1234,0.396624 -0.28711,1.212891 -0.28711,1.212891 0,0 2.25734,0.556404 3.3418,0.96875 0.45973,0.174614 0.86664,0.475648 1.33203,0.634766 0.44937,0.153827 0.93496,0.175742 1.39258,0.302734 0.80512,0.22337 2.37305,0.804688 2.37305,0.804688 0,0 0.0245,-1.522654 0.24804,-2.240235 0.30395,-0.975874 1.45508,-2.699218 1.45508,-2.699218 0,0 3.92033,1.62225 5.83203,2.541015 1.96632,0.945071 3.89415,1.975078 5.79102,3.052735 0.97348,0.553057 1.95841,1.093307 2.86523,1.75 0.82404,0.59671 1.56547,1.300732 2.32422,1.978515 1.41262,1.261909 3.34266,2.169616 4.14649,3.884766 0.48846,1.042242 -0.21418,2.37456 0.20312,3.447265 0.84819,2.180372 3.17363,3.470824 4.43164,5.44336 1.00008,1.568088 1.93678,3.228337 2.4375,5.019531 0.18267,0.653443 -0.0238,1.381246 0.18946,2.025391 0.35652,1.077656 1.35381,1.853173 1.76757,2.910156 0.70138,1.791723 0.91679,3.748063 1.14844,5.658208 0.0858,0.70751 0.0577,1.42465 0.0879,2.13671 0.0268,0.63058 -0.14361,1.30125 0.082,1.89063 0.32727,0.85455 1.43982,1.25811 1.74414,2.12109 0.21839,0.61924 -0.0377,1.31435 -0.0195,1.97071 0.0272,0.98097 0.15857,1.95675 0.19141,2.9375 0.0249,0.74604 -0.10953,1.50051 0.004,2.23828 0.10178,0.66251 0.55896,1.2509 0.59961,1.91992 0.0615,1.01235 -0.2662,2.0182 -0.54883,2.99219 -0.19287,0.6647 -0.59293,1.25873 -0.77735,1.92578 -0.17314,0.62627 -0.17491,1.2887 -0.30273,1.92578 -0.13939,0.69464 -0.38102,1.36671 -0.50391,2.06445 -0.16819,0.95486 -0.008,1.97332 -0.3164,2.89258 -0.27667,0.82503 -1.04966,1.41917 -1.33789,2.24023 -0.27583,0.78573 -0.10671,1.67574 -0.3418,2.47461 -0.35909,1.22026 -0.98971,2.3501 -1.60938,3.46094 -0.38785,0.69528 -0.85162,1.34493 -1.3125,1.99414 -0.61791,0.87039 -1.25194,1.73335 -1.94531,2.54492 -0.35966,0.42097 -0.77602,0.7897 -1.14648,1.20118 -0.66631,0.74014 -1.21215,1.5929 -1.93555,2.27734 -0.70811,0.66996 -1.53722,1.19774 -2.32813,1.76758 -2.32675,1.67644 -4.7211,3.25907 -7.10351,4.85547 -0.91875,0.61561 -1.7892,1.31601 -2.77344,1.82031 -1.09662,0.56194 -2.27553,0.95515 -3.45117,1.32422 -1.80932,0.56802 -3.69206,0.87295 -5.52344,1.36523 -1.07562,0.28914 -2.12856,0.66099 -3.20898,0.93164 -3.45724,0.86608 -6.91944,1.81042 -10.46094,2.21094 -2.20858,0.24983 -4.44491,0.19643 -6.66602,0.11328 -2.72858,-0.10205 -5.43792,-0.51596 -8.158198,-0.75195 -1.110641,-0.0964 -2.217702,-0.2386 -3.332031,-0.27149 -1.033146,-0.0302 -2.074363,0.18486 -3.101563,0.0703 -0.500152,-0.0559 -0.961804,-0.35207 -1.464844,-0.36719 -1.007905,-0.0302 -2.073419,1.0129 -2.972656,0.55664 -0.403752,-0.20485 -0.174385,-1.04024 -0.58789,-1.22461 -0.724993,-0.32315 -1.492934,0.61781 -2.285157,0.66797 -2.796861,0.17726 -5.59903,-0.58875 -8.302734,-1.32617 -0.477691,-0.1304 -0.896083,-0.44217 -1.380859,-0.54297 -0.575229,-0.11943 -1.185126,0.0505 -1.761719,-0.0625 -0.835684,-0.16366 -1.64269,-0.48838 -2.400391,-0.87696 -0.459655,-0.23583 -0.804122,-0.67308 -1.28125,-0.87109 -0.561513,-0.2332 -1.208269,-0.17027 -1.791016,-0.34375 -0.746818,-0.22186 -1.493181,-0.48863 -2.164062,-0.88476 -0.866056,-0.51137 -1.399157,-1.56001 -2.347656,-1.89454 -0.451563,-0.15911 -0.969307,0.10016 -1.4375,0 -0.956327,-0.20485 -1.812794,-0.74289 -2.675782,-1.20312 -0.693137,-0.36964 -1.270059,-0.95579 -2,-1.24609 -0.293441,-0.11679 -0.644099,-0.0484 -0.927734,-0.1875 -0.543345,-0.26608 -0.959992,-0.74529 -1.376953,-1.1836 -0.439888,-0.46246 -0.727179,-1.05775 -1.173828,-1.51367 -0.456862,-0.46632 -1.026759,-0.80647 -1.521485,-1.23242 -0.551866,-0.47513 -1.124229,-0.93501 -1.613281,-1.47461 -0.293329,-0.32353 -0.606263,-0.65035 -0.785156,-1.04883 -0.09831,-0.21883 -0.07523,-0.47472 -0.142578,-0.70508 -0.101669,-0.34771 -0.18116,-0.718 -0.390625,-1.01367 -0.300926,-0.42474 -0.854644,-0.61508 -1.189453,-1.01367 -1.114568,-1.32688 -1.904433,-2.90902 -2.634766,-4.48047 -0.319823,-0.68814 -0.504551,-1.43053 -0.755859,-2.14648 -0.232441,-0.66229 -0.491562,-1.31663 -0.695313,-1.98829 -0.372283,-1.22717 -0.683632,-2.47299 -0.96289,-3.7246 -0.111912,-0.50166 -0.220073,-1.00577 -0.285157,-1.51563 -0.05734,-0.44908 -0.04455,-0.90518 -0.0918,-1.35547 -0.05915,-0.56379 -0.145898,-1.12464 -0.240235,-1.68359 -0.324359,-1.92178 -0.872111,-3.80506 -1.119141,-5.73828 -0.197101,-1.54258 -0.234384,-3.102 -0.287109,-4.65625 -0.02419,-0.71702 -0.05321,-1.43598 -0.01367,-2.15235 0.03798,-0.69067 0.164984,-1.37485 0.240235,-2.0625 0.05987,-0.54693 0.104208,-1.0941 0.167968,-1.64062 0.04732,-0.40566 0.07931,-0.81452 0.160157,-1.21485 0.08716,-0.43154 0.262,-0.842 0.349609,-1.27343 0.08708,-0.42894 0.103869,-0.87066 0.173828,-1.30274 0.10269,-0.63417 0.21559,-1.26688 0.361328,-1.89258 0.143622,-0.616547 0.294881,-1.234409 0.503906,-1.832028 0.194533,-0.55608 0.483867,-1.075116 0.695313,-1.625 0.139805,-0.363589 0.312349,-0.721619 0.378906,-1.105468 0.06452,-0.372284 -0.063,-0.763288 0.01563,-1.132813 0.136101,-0.640252 0.44918,-1.237229 0.775391,-1.804687 0.365442,-0.635717 0.996386,-1.104082 1.308594,-1.767578 0.167395,-0.355654 0.275908,-0.751461 0.283203,-1.144532 0.01172,-0.638778 -0.429059,-1.239233 -0.390625,-1.876953 0.05443,-0.903193 0.517989,-1.737519 0.867187,-2.572265 0.269367,-0.643918 0.605368,-1.258445 0.94336,-1.869141 0.419191,-0.757417 0.879427,-1.492036 1.34375,-2.222656 0.624884,-0.983207 1.235731,-1.977809 1.939453,-2.90625 0.644458,-0.850243 1.351769,-1.653713 2.083984,-2.429688 0.652445,-0.691427 1.359169,-1.328323 2.052735,-1.978515 0.772848,-0.724498 1.549683,-1.448091 2.349609,-2.142578 0.618092,-0.536618 1.235042,-1.07697 1.892578,-1.564454 0.786229,-0.582878 1.620517,-1.097251 2.447266,-1.621093 1.168463,-0.740334 2.342625,-1.474775 3.550781,-2.148438 1.448606,-0.807685 2.915693,-1.585978 4.427734,-2.267578 1.478453,-0.666444 4.529297,-1.777344 4.529297,-1.777344 0,0 -5.74e-4,1.574242 0.0039,2.361328 0.0045,0.783421 0.02344,2.351563 0.02344,2.351563 0,0 0.957659,0.567865 1.494141,0.617187 0.30958,0.03024 0.601231,-0.196383 0.912109,-0.193359 0.370469,0.0034 0.71228,0.22852 1.082031,0.251953 0.329915,0.0189 0.656564,-0.12424 0.986328,-0.101562 0.366879,0.02646 0.707046,0.304805 1.072266,0.261718 0.397727,-0.04687 0.701957,-0.38714 1.068359,-0.548828 0.25115,-0.11074 0.502783,-0.230794 0.771485,-0.287109 0.266645,-0.05556 0.566141,0.06083 0.816406,-0.04687 0.164787,-0.07106 0.308258,-0.210023 0.390625,-0.369141 0.144151,-0.278929 0.16068,-0.619073 0.130859,-0.93164 -0.05167,-0.541947 -0.422734,-1.010686 -0.527344,-1.544922 -0.211123,-1.078262 -0.187499,-3.291016 -0.1875,-3.291016 0,0 0.377019,-0.362832 0.615235,-0.453125 0.549263,-0.208252 1.171534,-0.08305 1.753906,-0.160156 1.445375,-0.191244 2.873718,-0.504508 4.310547,-0.751953 1.549402,-0.266835 3.087946,-0.599432 4.648438,-0.791016 1.227566,-0.150803 3.701171,-0.28125 3.701171,-0.28125 0,0 -0.279837,1.829811 -0.386718,2.748047 -0.06459,0.554759 -0.135097,1.109808 -0.154297,1.667969 -0.01928,0.55593 0.03906,1.667968 0.03906,1.667968 0,0 1.598865,-0.343173 2.404297,-0.291015 0.3982,0.02646 0.77555,0.188717 1.16016,0.294922 0.68428,0.188976 1.33544,0.530761 2.04102,0.609375 0.46014,0.0514 0.95854,0.08238 1.38671,-0.09375 0.45396,-0.186709 0.87094,-0.536031 1.11329,-0.962891 0.27982,-0.492926 0.29492,-1.673828 0.29492,-1.673828 0,0 0.18955,-1.341759 0.31836,-2.005859 0.14241,-0.734174 0.50195,-2.185547 0.50195,-2.185547 z m -43.695313,5.199219 c 0.15375,0.0075 0.296417,0.04816 0.388672,0.15625 0.165732,0.194267 0.09794,0.542028 -0.02539,0.765624 -0.287206,0.520819 -0.981456,0.670463 -1.476562,1 -0.816533,0.543497 -1.704657,0.989105 -2.462891,1.611329 -0.77602,0.63685 -1.293167,1.565924 -2.109375,2.15039 -0.242986,0.173859 -0.543929,0.527419 -0.808594,0.388672 -0.303458,-0.159118 -0.254682,-0.686277 -0.160156,-1.015625 0.277984,-0.968768 1.359506,-1.490459 1.984375,-2.28125 0.244006,-0.308787 0.417222,-0.672912 0.6875,-0.958984 0.229682,-0.243024 0.472682,-0.501902 0.78125,-0.63086 0.357921,-0.149669 0.790399,-0.0018 1.15625,-0.130859 0.59046,-0.208252 0.976794,-0.867768 1.587891,-1.003906 0.138727,-0.03099 0.303281,-0.05825 0.457031,-0.05078 z m -7.853516,6.1875 c 0.04181,0.0034 0.08397,0.01539 0.125,0.03711 0.298016,0.157606 0.210481,0.677242 0.126953,1.003906 -0.210859,0.824466 -0.971293,1.397631 -1.5,2.064453 -0.4793,0.604536 -0.978299,1.194586 -1.511718,1.751953 -0.783519,0.818684 -1.711513,1.494438 -2.472657,2.333985 -0.695191,0.76679 -1.356327,1.574599 -1.90039,2.455078 -0.533367,0.863168 -0.871721,1.832077 -1.320313,2.742187 -0.348434,0.706923 -0.708814,1.408034 -1.064453,2.111329 -0.314041,0.621089 -0.608977,1.252925 -0.943359,1.863281 -0.182703,0.333354 -0.293428,0.732557 -0.580078,0.982422 -0.198841,0.17348 -0.501675,0.436026 -0.730469,0.304687 -0.345676,-0.198425 -0.232395,-0.79395 -0.158203,-1.185547 0.09607,-0.507061 0.513143,-0.896041 0.751953,-1.353515 0.327458,-0.627289 0.612787,-1.275561 0.933594,-1.90625 0.405225,-0.796687 0.839837,-1.57796 1.251953,-2.371094 0.279004,-0.536958 0.543085,-1.082384 0.826172,-1.617188 0.269404,-0.508989 0.509219,-1.037401 0.830078,-1.515625 0.394941,-0.588623 0.836525,-1.1493 1.33789,-1.65039 0.416826,-0.416618 0.961981,-0.692885 1.375,-1.113281 0.447281,-0.455245 0.777056,-1.012985 1.177735,-1.509766 0.270803,-0.335622 0.549339,-0.664982 0.828125,-0.994141 0.409326,-0.483326 0.796321,-0.987686 1.240234,-1.439453 0.159005,-0.161764 0.320484,-0.325074 0.507813,-0.453125 0.268304,-0.183212 0.576462,-0.564815 0.86914,-0.541016 z M 34.720703,115.48047 c 0.581567,0.10016 0.384956,1.12994 0.423828,1.71875 0.0378,0.57105 -0.219765,1.13357 -0.189453,1.70508 0.03908,0.73632 0.352395,1.43493 0.47461,2.16211 0.142185,0.84593 0.176434,1.70595 0.300781,2.55468 0.154469,1.05434 0.352585,2.10181 0.552734,3.14844 0.109758,0.57385 0.245976,1.14288 0.355469,1.7168 0.101972,0.53457 0.171114,1.07642 0.28125,1.60937 0.135118,0.65363 0.344893,1.29069 0.464844,1.94727 0.135874,0.74377 0.04855,1.53257 0.287109,2.25 0.120076,0.36094 0.422336,0.63846 0.5625,0.99219 0.289172,0.72982 0.342643,1.53436 0.558594,2.28906 0.231987,0.81075 0.96693,1.57761 0.791015,2.40234 -0.03742,0.17575 -0.184471,0.41549 -0.363281,0.39844 -1.053037,-0.10016 -1.241244,-1.73324 -1.654297,-2.70703 -0.358375,-0.84491 -0.504807,-1.76743 -0.691406,-2.66602 -0.214375,-1.03241 -0.263878,-2.09515 -0.490234,-3.125 -0.221178,-1.0063 -0.532003,-1.99126 -0.845704,-2.97265 -0.286148,-0.89522 -0.771828,-1.73261 -0.945312,-2.65625 -0.154091,-0.8205 -0.0058,-1.67188 -0.07422,-2.50391 -0.06357,-0.77265 -0.138415,-1.54923 -0.3125,-2.30469 -0.110286,-0.47864 -0.405688,-0.91038 -0.460937,-1.39843 -0.135156,-1.19396 -0.06396,-2.45607 0.333984,-3.58985 0.128353,-0.36586 0.258651,-1.03635 0.640626,-0.9707 z m 131.046877,5.28125 c 0.22034,0.0403 0.44339,0.20676 0.54492,0.39453 0.12488,0.23093 0.096,0.59045 -0.082,0.7832 -0.14449,0.15648 -0.43822,0.21206 -0.62891,0.11719 -0.25277,-0.12586 -0.39181,-0.47575 -0.3789,-0.75781 0.009,-0.20825 0.12904,-0.47547 0.33007,-0.53125 0.0685,-0.019 0.1414,-0.0193 0.21485,-0.006 z M 42.869141,126 c 0.644991,-0.0265 0.731802,1.09039 0.947265,1.70312 0.194079,0.55197 0.160005,1.16067 0.292969,1.73047 0.167282,0.71679 0.389963,1.42041 0.632813,2.11524 0.248579,0.71123 0.603455,1.38359 0.84375,2.09765 0.192755,0.57283 0.280256,1.17907 0.478515,1.75 0.147515,0.42479 0.566153,0.7924 0.525391,1.24024 -0.01852,0.20409 -0.149595,0.43294 -0.337891,0.51367 -0.220498,0.0945 -0.521244,0.0231 -0.708984,-0.12695 -0.349266,-0.2778 -0.351256,-0.82035 -0.527344,-1.23047 -0.153487,-0.35754 -0.31744,-0.71064 -0.460937,-1.07227 -0.387009,-0.97511 -0.770907,-1.9533 -1.076172,-2.95703 -0.202092,-0.66444 -0.388622,-1.3376 -0.498047,-2.02344 -0.07937,-0.49753 -0.04956,-1.008 -0.113281,-1.50781 -0.06603,-0.51802 -0.33308,-1.02159 -0.279297,-1.54101 0.0257,-0.24681 0.03328,-0.68049 0.28125,-0.69141 z m 2.541015,21.73242 c 0.162423,-0.0325 0.381647,0.0564 0.544922,0.10938 0.401949,0.12812 0.728549,0.42973 1.0625,0.6875 v -0.002 c 0.63747,0.49198 1.178785,1.09683 1.783203,1.62891 0.679548,0.59819 1.307898,1.27068 2.072266,1.75586 0.963103,0.6113 2.110928,0.87533 3.113281,1.41992 0.879266,0.47766 1.767479,0.96875 2.53125,1.61524 0.47249,0.39995 1.135264,0.76949 1.244141,1.3789 0.04199,0.23509 -0.04173,0.58114 -0.265625,0.66406 -1.065154,0.39447 -2.022646,-1.03731 -3.021485,-1.57812 -1.323201,-0.71645 -2.686763,-1.37047 -3.9375,-2.20703 -0.877613,-0.587 -1.695586,-1.26131 -2.486328,-1.96094 -0.916123,-0.81056 -2.025439,-1.50807 -2.607422,-2.58398 -0.137574,-0.25437 -0.35949,-0.62953 -0.171875,-0.84961 0.03705,-0.0435 0.08453,-0.0673 0.138672,-0.0781 z M 92,158.85547 c 0.341783,0.0227 0.750356,0.25145 0.847656,0.58008 0.05495,0.18557 -0.05144,0.44509 -0.222656,0.53515 -0.255685,0.13455 -0.646718,0.0309 -0.847656,-0.17773 -0.178659,-0.18444 -0.250193,-0.53027 -0.134766,-0.75977 0.05983,-0.11905 0.224609,-0.1868 0.357422,-0.17773 z m 2.900391,0.0879 c 0.215735,-0.0189 0.537734,-0.0176 0.625,0.17969 0.120604,0.27401 -0.125925,0.68753 -0.402344,0.80273 -0.248693,0.10356 -0.631168,-0.0184 -0.767578,-0.25195 -0.08712,-0.14816 -0.0062,-0.37077 0.09766,-0.50781 0.100611,-0.13267 0.281662,-0.20716 0.447266,-0.22266 z"
       inkscape:connector-curvature="0"
       transform="scale(0.26458333)" />
  </g>
</svg>
