<?xml version="1.0" encoding="UTF-8" standalone="no"?>
<!-- Created with Inkscape (http://www.inkscape.org/) -->

<svg
   xmlns:dc="http://purl.org/dc/elements/1.1/"
   xmlns:cc="http://creativecommons.org/ns#"
   xmlns:rdf="http://www.w3.org/1999/02/22-rdf-syntax-ns#"
   xmlns:svg="http://www.w3.org/2000/svg"
   xmlns="http://www.w3.org/2000/svg"
   xmlns:sodipodi="http://sodipodi.sourceforge.net/DTD/sodipodi-0.dtd"
   xmlns:inkscape="http://www.inkscape.org/namespaces/inkscape"
   width="37.832897mm"
   height="24.641314mm"
   viewBox="0 0 37.832896 24.641313"
   version="1.1"
   id="svg8"
   inkscape:version="0.92.4 (5da689c313, 2019-01-14)"
   sodipodi:docname="SmilingFace-White-CB.svg">
  <defs
     id="defs2" />
  <sodipodi:namedview
     id="base"
     pagecolor="#ffffff"
     bordercolor="#666666"
     borderopacity="1.0"
     inkscape:pageopacity="0.0"
     inkscape:pageshadow="2"
     inkscape:zoom="5.6568542"
     inkscape:cx="66.621792"
     inkscape:cy="43.842896"
     inkscape:document-units="mm"
     inkscape:current-layer="layer4"
     showgrid="false"
     fit-margin-top="0"
     fit-margin-left="0"
     fit-margin-right="0"
     fit-margin-bottom="0"
     inkscape:snap-global="false"
     showguides="true"
     inkscape:guide-bbox="true"
     inkscape:snap-midpoints="false"
     inkscape:snap-intersection-paths="false"
     inkscape:object-paths="true"
     inkscape:window-width="1920"
     inkscape:window-height="1027"
     inkscape:window-x="0"
     inkscape:window-y="24"
     inkscape:window-maximized="1">
    <sodipodi:guide
       position="63.830542,5.0657523"
       orientation="1,0"
       id="guide855"
       inkscape:locked="false" />
    <sodipodi:guide
       position="79.332175,5.0657523"
       orientation="1,0"
       id="guide857"
       inkscape:locked="false" />
    <sodipodi:guide
       position="96.63787,5.0657533"
       orientation="1,0"
       id="guide859"
       inkscape:locked="false" />
    <sodipodi:guide
       position="113.67631,5.0657523"
       orientation="1,0"
       id="guide861"
       inkscape:locked="false" />
    <sodipodi:guide
       position="133.85515,5.0657533"
       orientation="1,0"
       id="guide863"
       inkscape:locked="false" />
    <sodipodi:guide
       position="151.56175,5.0657533"
       orientation="1,0"
       id="guide865"
       inkscape:locked="false" />
    <sodipodi:guide
       position="44.590495,5.0657533"
       orientation="1,0"
       id="guide871"
       inkscape:locked="false" />
    <sodipodi:guide
       position="0.017639441,5.0657533"
       orientation="1,0"
       id="guide844"
       inkscape:locked="false" />
    <sodipodi:guide
       position="0.017638841,0.017641143"
       orientation="0,1"
       id="guide846"
       inkscape:locked="false" />
    <sodipodi:guide
       position="37.815258,5.0657533"
       orientation="1,0"
       id="guide848"
       inkscape:locked="false" />
    <sodipodi:guide
       position="0.017638841,24.623673"
       orientation="0,1"
       id="guide850"
       inkscape:locked="false" />
    <sodipodi:guide
       position="0.017639441,5.0657533"
       orientation="0,1"
       id="guide852"
       inkscape:locked="false" />
  </sodipodi:namedview>
  <metadata
     id="metadata5">
    <rdf:RDF>
      <cc:Work
         rdf:about="">
        <dc:format>image/svg+xml</dc:format>
        <dc:type
           rdf:resource="http://purl.org/dc/dcmitype/StillImage" />
        <dc:title></dc:title>
      </cc:Work>
    </rdf:RDF>
  </metadata>
  <g
     inkscape:groupmode="layer"
     id="layer4"
     inkscape:label="☺"
     style="display:inline"
     transform="translate(-7.7308724,-20.001709)">
    <rect
       style="opacity:0.8;fill:none;fill-opacity:1;stroke:#000000;stroke-width:0.03527778;stroke-linecap:butt;stroke-linejoin:round;stroke-miterlimit:4;stroke-dasharray:none;stroke-dashoffset:0;stroke-opacity:1;paint-order:normal"
       id="rect854"
       width="37.797619"
       height="24.606035"
       x="7.7485113"
       y="20.019348" />
    <path
       transform="translate(-14.598957,-132.19028)"
       style="display:inline;fill:none;fill-opacity:1;stroke:#000000;stroke-width:0.03527778;stroke-linecap:butt;stroke-linejoin:miter;stroke-miterlimit:4;stroke-dasharray:none;stroke-opacity:1"
       d="m 43.018476,147.70452 c 0,0 0.746733,0.0203 1.112093,0.0898 0.302737,0.0575 0.588974,0.18159 0.884496,0.26894 0.344439,0.1018 1.035669,0.29733 1.035669,0.29733 0,0 -0.0015,0.24402 -0.02965,0.36165 -0.03126,0.13074 -0.102761,0.24844 -0.152427,0.37335 -0.04004,0.1007 -0.08516,0.19971 -0.117349,0.30318 -0.03265,0.10494 -0.07642,0.32073 -0.07642,0.32073 0,0 0.597565,0.14731 0.884496,0.25641 0.121637,0.0462 0.229326,0.12577 0.35246,0.16787 0.118896,0.0407 0.247253,0.0466 0.368333,0.0802 0.213022,0.0591 0.628083,0.21297 0.628083,0.21297 0,0 0.006,-0.40314 0.06515,-0.593 0.08042,-0.2582 0.385036,-0.71411 0.385036,-0.71411 0,0 1.037679,0.42926 1.543483,0.67235 0.520255,0.25005 1.029907,0.52252 1.531788,0.80765 0.257567,0.14633 0.518589,0.28932 0.758519,0.46307 0.218025,0.15788 0.414086,0.34424 0.614839,0.52357 0.373754,0.33388 0.884535,0.57411 1.097215,1.02791 0.12924,0.27576 -0.05696,0.62824 0.05345,0.91206 0.224416,0.57689 0.8398,0.91801 1.172648,1.43991 0.264604,0.41489 0.5123,0.85408 0.644784,1.328 0.04833,0.17289 -0.0063,0.36578 0.05011,0.53621 0.09433,0.28513 0.358249,0.49041 0.467723,0.77007 0.185571,0.47406 0.242727,0.99132 0.304017,1.49671 0.0227,0.1872 0.01518,0.37684 0.02317,0.56524 0.0071,0.16684 -0.03779,0.34455 0.02192,0.50049 0.08659,0.2261 0.38052,0.33294 0.46104,0.56127 0.05778,0.16384 -0.0098,0.34751 -0.005,0.52117 0.0072,0.25955 0.04188,0.51779 0.05057,0.77728 0.0066,0.19739 -0.02879,0.39728 0.0012,0.59248 0.02693,0.17529 0.147937,0.3308 0.158692,0.50781 0.01627,0.26785 -0.07055,0.53408 -0.145329,0.79178 -0.05103,0.17587 -0.156671,0.333 -0.205464,0.50949 -0.04581,0.1657 -0.04636,0.34092 -0.08018,0.50948 -0.03688,0.18379 -0.101119,0.36163 -0.133633,0.54624 -0.0445,0.25264 -0.002,0.52183 -0.08352,0.76505 -0.0732,0.21829 -0.277869,0.37577 -0.354132,0.59301 -0.07298,0.20789 -0.028,0.44344 -0.0902,0.65481 -0.09501,0.32286 -0.262008,0.62149 -0.425961,0.9154 -0.102619,0.18396 -0.225509,0.35609 -0.34745,0.52786 -0.16349,0.23029 -0.331039,0.45845 -0.514494,0.67318 -0.09516,0.11138 -0.205222,0.20924 -0.303241,0.31811 -0.176294,0.19583 -0.320532,0.42121 -0.511932,0.6023 -0.187354,0.17726 -0.407131,0.31695 -0.61639,0.46772 -0.615624,0.44356 -1.248892,0.86219 -1.879239,1.28457 -0.243085,0.16288 -0.47333,0.34845 -0.733744,0.48188 -0.290149,0.14868 -0.602249,0.25234 -0.913303,0.34999 -0.478715,0.15029 -0.976681,0.23113 -1.461232,0.36138 -0.284593,0.0765 -0.563119,0.17505 -0.848981,0.24666 -0.914728,0.22915 -1.830887,0.47868 -2.767908,0.58465 -0.584354,0.0661 -1.176312,0.0521 -1.76398,0.0301 -0.721941,-0.027 -1.43846,-0.13634 -2.158201,-0.19878 -0.293857,-0.0255 -0.58713,-0.0631 -0.881963,-0.0718 -0.273353,-0.008 -0.54843,0.0487 -0.82021,0.0184 -0.132332,-0.0148 -0.254445,-0.0929 -0.387541,-0.0969 -0.266675,-0.008 -0.548852,0.26772 -0.786775,0.147 -0.106826,-0.0542 -0.04594,-0.27528 -0.155347,-0.32406 -0.191821,-0.0855 -0.395088,0.16379 -0.604697,0.17706 -0.740003,0.0469 -1.481267,-0.15568 -2.196622,-0.35079 -0.126389,-0.0345 -0.237561,-0.11699 -0.365825,-0.14366 -0.152196,-0.0316 -0.313494,0.0132 -0.466051,-0.0167 -0.221108,-0.0433 -0.43429,-0.12939 -0.634765,-0.2322 -0.121617,-0.0624 -0.212858,-0.17813 -0.339098,-0.23052 -0.148567,-0.0617 -0.319715,-0.0451 -0.4739,-0.091 -0.197596,-0.0587 -0.394914,-0.12922 -0.572418,-0.23403 -0.229144,-0.1353 -0.370482,-0.41262 -0.621439,-0.50113 -0.119476,-0.0421 -0.25619,0.0267 -0.380066,2e-4 -0.253028,-0.0542 -0.479651,-0.19671 -0.707983,-0.31848 -0.183393,-0.0978 -0.3361,-0.25289 -0.52923,-0.3297 -0.07764,-0.0309 -0.170631,-0.013 -0.245676,-0.0498 -0.14376,-0.0704 -0.253627,-0.19728 -0.363948,-0.31325 -0.116387,-0.12236 -0.19272,-0.27936 -0.310896,-0.39999 -0.120878,-0.12338 -0.271624,-0.21362 -0.40252,-0.32632 -0.146015,-0.12571 -0.297301,-0.24716 -0.426696,-0.38993 -0.07761,-0.0856 -0.160339,-0.17218 -0.207671,-0.27761 -0.02601,-0.0579 -0.02035,-0.12571 -0.03817,-0.18666 -0.0269,-0.092 -0.0478,-0.19022 -0.103221,-0.26845 -0.07962,-0.11238 -0.226091,-0.16231 -0.314676,-0.26777 -0.294896,-0.35107 -0.503963,-0.76989 -0.697197,-1.18567 -0.08462,-0.18207 -0.13354,-0.37868 -0.200032,-0.56811 -0.0615,-0.17523 -0.13009,-0.34815 -0.183999,-0.52586 -0.0985,-0.32469 -0.180394,-0.65448 -0.254281,-0.98564 -0.02961,-0.13273 -0.05845,-0.26601 -0.07567,-0.40091 -0.01517,-0.11882 -0.01172,-0.23941 -0.02422,-0.35855 -0.01565,-0.14917 -0.03856,-0.29756 -0.06352,-0.44545 -0.08582,-0.50847 -0.231016,-1.00682 -0.296376,-1.51832 -0.05215,-0.40814 -0.06181,-0.82084 -0.07576,-1.23207 -0.0064,-0.18971 -0.01406,-0.37992 -0.0036,-0.56946 0.01005,-0.18274 0.04378,-0.36341 0.06369,-0.54535 0.01584,-0.14471 0.02751,-0.28988 0.04438,-0.43448 0.01252,-0.10733 0.02079,-0.21551 0.04218,-0.32143 0.02306,-0.11418 0.06937,-0.22281 0.09255,-0.33696 0.02304,-0.11349 0.02738,-0.23005 0.04589,-0.34437 0.02717,-0.16779 0.05702,-0.33534 0.09558,-0.50089 0.038,-0.16313 0.07833,-0.3263 0.133635,-0.48442 0.05147,-0.14713 0.127803,-0.28452 0.183748,-0.43001 0.03699,-0.0962 0.0827,-0.19093 0.10031,-0.29249 0.01707,-0.0985 -0.0169,-0.20207 0.0039,-0.29984 0.03601,-0.1694 0.118863,-0.32719 0.205173,-0.47733 0.09669,-0.1682 0.263801,-0.29217 0.346406,-0.46772 0.04429,-0.0941 0.0729,-0.19895 0.07483,-0.30295 0.0031,-0.16901 -0.11339,-0.32776 -0.103221,-0.49649 0.0144,-0.23897 0.137191,-0.45967 0.229583,-0.68053 0.07127,-0.17037 0.160022,-0.33311 0.249449,-0.49469 0.110911,-0.2004 0.232745,-0.39464 0.355597,-0.58795 0.165334,-0.26014 0.327005,-0.52359 0.513198,-0.76924 0.170513,-0.22496 0.357511,-0.43755 0.551243,-0.64286 0.172626,-0.18294 0.359888,-0.35154 0.543394,-0.52357 0.204483,-0.19169 0.409625,-0.38285 0.621272,-0.5666 0.163537,-0.14198 0.326906,-0.28483 0.500879,-0.41381 0.208023,-0.15422 0.42876,-0.29066 0.647504,-0.42926 0.309156,-0.19588 0.619751,-0.39013 0.939409,-0.56837 0.383277,-0.2137 0.771781,-0.41959 1.171842,-0.59993 0.391174,-0.17633 1.198338,-0.47007 1.198338,-0.47007 0,0 -5.63e-4,0.4165 6.24e-4,0.62475 0.0012,0.20728 0.0065,0.62182 0.0065,0.62182 0,0 0.253114,0.15064 0.395058,0.16369 0.08191,0.008 0.159125,-0.0521 0.241378,-0.0513 0.09802,9e-4 0.188649,0.0602 0.286479,0.0664 0.08729,0.005 0.173756,-0.0327 0.261006,-0.0267 0.09707,0.007 0.186925,0.0807 0.283556,0.0693 0.105232,-0.0124 0.185777,-0.10255 0.282721,-0.14533 0.06645,-0.0293 0.133117,-0.0611 0.204211,-0.076 0.07055,-0.0147 0.149688,0.0164 0.215904,-0.0121 0.0436,-0.0188 0.08177,-0.0556 0.103563,-0.0977 0.03814,-0.0738 0.04255,-0.1641 0.03466,-0.2468 -0.01367,-0.14339 -0.112221,-0.26749 -0.139899,-0.40884 -0.05586,-0.28529 -0.0497,-0.87071 -0.0497,-0.87071 0,0 0.09984,-0.096 0.162868,-0.11989 0.145326,-0.0551 0.310294,-0.0218 0.46438,-0.0422 0.382422,-0.0506 0.759911,-0.13332 1.140072,-0.19879 0.409946,-0.0706 0.817396,-0.15853 1.230276,-0.20922 0.324794,-0.0399 0.978874,-0.0744 0.978874,-0.0744 0,0 -0.07362,0.4837 -0.101899,0.72665 -0.01709,0.14678 -0.03584,0.29373 -0.04092,0.44141 -0.0051,0.14709 0.01044,0.44141 0.01044,0.44141 0,0 0.422915,-0.0906 0.636019,-0.0768 0.105357,0.007 0.205183,0.05 0.306944,0.0781 0.181049,0.05 0.353284,0.1404 0.539967,0.1612 0.12175,0.0136 0.253371,0.0216 0.366659,-0.025 0.120108,-0.0494 0.230712,-0.14179 0.294833,-0.25473 0.07404,-0.13042 0.07809,-0.44309 0.07809,-0.44309 0,0 0.04986,-0.35465 0.08394,-0.53036 0.03768,-0.19425 0.133131,-0.57849 0.133131,-0.57849 z"
       id="path878"
       inkscape:connector-curvature="0"
       sodipodi:nodetypes="caacaaacaaacacaaaaaaaaaaaaaaaaaaaaaaaaaaaaaaaaaaaaaaaaaaacaaaaaaaaaaaaaaaaaaaaaaaaaaaaaaaaaaaaaaaaaaaaaaaaaaaaaaaacacaaaaaaaaaaacaaaacaacaaaaacacc" />
  </g>
</svg>
